<svg xmlns="http://www.w3.org/2000/svg" width="300" height="300" viewBox="100 100 100 100" id="pattern" style="font-family: &quot;Noto Emoji&quot;; visibility: visible;"><text text-anchor="middle" dominant-baseline="middle" transform="rotate(29 118.51 111.83)" x="118.51" y="111.83" font-size="5.97px" opacity="0.5">⏳</text><text text-anchor="middle" dominant-baseline="middle" transform="rotate(8 116.16 171.91)" x="116.16" y="171.91" font-size="8.95px" opacity="0.5">🔝</text><text text-anchor="middle" dominant-baseline="middle" transform="rotate(-13 105.65 192.99)" x="105.65" y="192.99" font-size="7.53px" opacity="0.5">🈴</text><text text-anchor="middle" dominant-baseline="middle" transform="rotate(-40 184.24 112.83)" x="184.24" y="112.83" font-size="8.40px" opacity="0.5">🔈</text><text text-anchor="middle" dominant-baseline="middle" transform="rotate(19 137.78 109.2)" x="137.78" y="109.2" font-size="7.61px" opacity="0.5">🌽</text><text text-anchor="middle" dominant-baseline="middle" transform="rotate(14 126.15 145.89)" x="126.15" y="145.89" font-size="4.62px" opacity="0.5">🐀</text><text text-anchor="middle" dominant-baseline="middle" transform="rotate(-23 129.57999999999998 121.52)" x="129.57999999999998" y="121.52" font-size="5.64px" opacity="0.5">🎊</text><text text-anchor="middle" dominant-baseline="middle" transform="rotate(-3 126.77 105.34)" x="126.77" y="105.34" font-size="7.11px" opacity="0.5">♊</text><text text-anchor="middle" dominant-baseline="middle" transform="rotate(-10 95.86 149.2)" x="95.86" y="149.2" font-size="8.65px" opacity="0.5">💼</text><text text-anchor="middle" dominant-baseline="middle" transform="rotate(-10 195.86 149.2)" x="195.86" y="149.2" font-size="8.65px" opacity="0.5">💼</text><text text-anchor="middle" dominant-baseline="middle" transform="rotate(12 150.76 111.47)" x="150.76" y="111.47" font-size="7.15px" opacity="0.5">👠</text><text text-anchor="middle" dominant-baseline="middle" transform="rotate(4 159.65 132.93)" x="159.65" y="132.93" font-size="8.41px" opacity="0.5">🐇</text><text text-anchor="middle" dominant-baseline="middle" transform="rotate(-31 96.52 184.64)" x="96.52" y="184.64" font-size="8.24px" opacity="0.5">👂</text><text text-anchor="middle" dominant-baseline="middle" transform="rotate(-31 196.51999999999998 184.64)" x="196.51999999999998" y="184.64" font-size="8.24px" opacity="0.5">👂</text><text text-anchor="middle" dominant-baseline="middle" transform="rotate(-38 142.41 125.78)" x="142.41" y="125.78" font-size="6.89px" opacity="0.5">🚈</text><text text-anchor="middle" dominant-baseline="middle" transform="rotate(4 147.75 120.63)" x="147.75" y="120.63" font-size="4.97px" opacity="0.5">🎿</text><text text-anchor="middle" dominant-baseline="middle" transform="rotate(-12 133.93 187.65)" x="133.93" y="187.65" font-size="12.11px" opacity="0.5">🚠</text><text text-anchor="middle" dominant-baseline="middle" transform="rotate(30 181.76999999999998 134.48)" x="181.76999999999998" y="134.48" font-size="7.62px" opacity="0.5">😢</text><text text-anchor="middle" dominant-baseline="middle" transform="rotate(-30 169.92000000000002 187.07999999999998)" x="169.92000000000002" y="187.07999999999998" font-size="13.02px" opacity="0.5">🚔</text><text text-anchor="middle" dominant-baseline="middle" transform="rotate(10 108.28 105.64)" x="108.28" y="105.64" font-size="7.85px" opacity="0.5">🍕</text><text text-anchor="middle" dominant-baseline="middle" transform="rotate(31 157.61 166.68)" x="157.61" y="166.68" font-size="7.11px" opacity="0.5">✅</text><text text-anchor="middle" dominant-baseline="middle" transform="rotate(-5 122.86 137.44)" x="122.86" y="137.44" font-size="5.60px" opacity="0.5">🐓</text><text text-anchor="middle" dominant-baseline="middle" transform="rotate(-14 144.5 108.49)" x="144.5" y="108.49" font-size="4.18px" opacity="0.5">🌷</text><text text-anchor="middle" dominant-baseline="middle" transform="rotate(-15 193.76999999999998 129.96)" x="193.76999999999998" y="129.96" font-size="6.87px" opacity="0.5">😺</text><text text-anchor="middle" dominant-baseline="middle" transform="rotate(17 131.96 133)" x="131.96" y="133" font-size="7.27px" opacity="0.5">⚾</text><text text-anchor="middle" dominant-baseline="middle" transform="rotate(-19 150.79 139.56)" x="150.79" y="139.56" font-size="6.44px" opacity="0.5">🐏</text><text text-anchor="middle" dominant-baseline="middle" transform="rotate(4 187.15 154.4)" x="187.15" y="154.4" font-size="10.64px" opacity="0.5">🐋</text><text text-anchor="middle" dominant-baseline="middle" transform="rotate(9 140.89 167.41)" x="140.89" y="167.41" font-size="7.00px" opacity="0.5">📋</text><text text-anchor="middle" dominant-baseline="middle" transform="rotate(-42 111.28 145.71)" x="111.28" y="145.71" font-size="10.39px" opacity="0.5">📒</text><text text-anchor="middle" dominant-baseline="middle" transform="rotate(-39 167.09 121)" x="167.09" y="121" font-size="7.40px" opacity="0.5">📔</text><text text-anchor="middle" dominant-baseline="middle" transform="rotate(-22 148.57 168.6)" x="148.57" y="168.6" font-size="4.16px" opacity="0.5">🍀</text><text text-anchor="middle" dominant-baseline="middle" transform="rotate(13 186.28 181.55)" x="186.28" y="181.55" font-size="9.05px" opacity="0.5">🔜</text><text text-anchor="middle" dominant-baseline="middle" transform="rotate(-2 124.03 118.68)" x="124.03" y="118.68" font-size="4.68px" opacity="0.5">🌆</text><text text-anchor="middle" dominant-baseline="middle" transform="rotate(-19 175.45999999999998 163.98)" x="175.45999999999998" y="163.98" font-size="10.09px" opacity="0.5">🏢</text><text text-anchor="middle" dominant-baseline="middle" transform="rotate(-26 141.99 139.65)" x="141.99" y="139.65" font-size="6.97px" opacity="0.5">🗻</text><text text-anchor="middle" dominant-baseline="middle" transform="rotate(29 177.68 120.81)" x="177.68" y="120.81" font-size="5.62px" opacity="0.5">🚞</text><text text-anchor="middle" dominant-baseline="middle" transform="rotate(18 133.82 149.42000000000002)" x="133.82" y="149.42000000000002" font-size="6.32px" opacity="0.5">🍭</text><text text-anchor="middle" dominant-baseline="middle" transform="rotate(-1 115.85 189.22)" x="115.85" y="189.22" font-size="9.88px" opacity="0.5">📯</text><text text-anchor="middle" dominant-baseline="middle" transform="rotate(-8 146.06 155.07)" x="146.06" y="155.07" font-size="8.09px" opacity="0.5">😳</text><text text-anchor="middle" dominant-baseline="middle" transform="rotate(-30 193.79000000000002 109.45)" x="193.79000000000002" y="109.45" font-size="8.35px" opacity="0.5">🐳</text><text text-anchor="middle" dominant-baseline="middle" transform="rotate(12 129.74 171.09)" x="129.74" y="171.09" font-size="7.01px" opacity="0.5">🏃</text><text text-anchor="middle" dominant-baseline="middle" transform="rotate(10 115.23 127.65)" x="115.23" y="127.65" font-size="8.21px" opacity="0.5">📓</text><text text-anchor="middle" dominant-baseline="middle" transform="rotate(11 197.26999999999998 120.74)" x="197.26999999999998" y="120.74" font-size="4.08px" opacity="0.5">🍧</text><text text-anchor="middle" dominant-baseline="middle" transform="rotate(-12 165.6 107.4)" x="165.6" y="107.4" font-size="11.17px" opacity="0.5">👳</text><text text-anchor="middle" dominant-baseline="middle" transform="rotate(-12 165.6 207.4)" x="165.6" y="207.4" font-size="11.17px" opacity="0.5">👳</text><text text-anchor="middle" dominant-baseline="middle" transform="rotate(-22 152.71 184.32999999999998)" x="152.71" y="184.32999999999998" font-size="12.03px" opacity="0.5">🏡</text><text text-anchor="middle" dominant-baseline="middle" transform="rotate(41 169.06 153.82)" x="169.06" y="153.82" font-size="7.25px" opacity="0.5">🍍</text><text text-anchor="middle" dominant-baseline="middle" transform="rotate(-37 171.62 133.75)" x="171.62" y="133.75" font-size="6.67px" opacity="0.5">💥</text><text text-anchor="middle" dominant-baseline="middle" transform="rotate(-35 125.28999999999999 158.44)" x="125.28999999999999" y="158.44" font-size="8.56px" opacity="0.5">🏂</text><text text-anchor="middle" dominant-baseline="middle" transform="rotate(-6 160.73 148.85)" x="160.73" y="148.85" font-size="8.57px" opacity="0.5">🎃</text><text text-anchor="middle" dominant-baseline="middle" transform="rotate(26 105.18 164.64)" x="105.18" y="164.64" font-size="9.50px" opacity="0.5">🎆</text><text text-anchor="middle" dominant-baseline="middle" transform="rotate(26 205.18 164.64)" x="205.18" y="164.64" font-size="9.50px" opacity="0.5">🎆</text><text text-anchor="middle" dominant-baseline="middle" transform="rotate(-14 105.11 123.7)" x="105.11" y="123.7" font-size="9.21px" opacity="0.5">🚾</text><text text-anchor="middle" dominant-baseline="middle" transform="rotate(-14 205.11 123.7)" x="205.11" y="123.7" font-size="9.21px" opacity="0.5">🚾</text><text text-anchor="middle" dominant-baseline="middle" transform="rotate(10 186.73000000000002 195.63)" x="186.73000000000002" y="195.63" font-size="6.49px" opacity="0.5">💃</text></svg>